<svg version="1" xmlns="http://www.w3.org/2000/svg" width="629.333" height="629.333" viewBox="0 0 472.000000 472.000000"><path d="M224 2.9c0 .3-3 .6-6.8.7-5.5.1-12.7.8-12.7 1.4 0 0-2 .3-4.5.5s-5.6.6-7 .9c-1.4.3-5 1.1-8 1.7-3 .5-7.7 1.8-10.5 2.7-2.7.9-5.2 1.7-5.5 1.7-.7.1-8.2 2.6-10 3.2-.8.4-1.8.5-2.2.5-.5-.1-.8.3-.8 1 0 .6-.3.9-.6.6-.5-.6-3.2.3-10.9 3.7-1.6.7-4.9 2.1-7.2 3.1-2.3.9-3.9 2.2-3.6 2.7.3.6.1.7-.5.3-1.1-.7-5.1 1.1-6.3 2.7-.3.5-.9.8-1.3.8-1.9-.2-3.6 1.3-3.1 2.8.5 1.2.3 1.3-.5.5-.9-.9-1.9-.8-4.1.5-1.6.9-2.9 2-2.9 2.4 0 .5-.4.5-1 .2-.5-.3-1-.2-1 .3s-1.3 1.5-3 2.2c-1.6.7-3 1.7-3 2.2 0 .5-.5.6-1.2.2-.8-.5-.9-.2-.5 1 .4 1 .3 1.5-.3 1.1-1.2-.7-10 5.3-10 6.8 0 .6-.3.8-.6.4-.8-.8-4.4 2.5-3.8 3.5.3.4-.3.5-1.2.1-1.2-.4-1.5-.3-1 .5.4.7.2 1.2-.4 1.2-2.2 0-18.4 15.6-17.5 16.9.3.6 0 .9-.8.5-1.5-.5-8.7 7.5-8.7 9.7 0 .7-.3 1-.6.6-2.3-2.3-31.4 41.2-30 45 .3.7-.1 1-1 .6-1-.4-1.2 0-.7 1.3.4 1.2.3 1.5-.5 1-.7-.4-1.2-.2-1.2.6 0 .7-.7 2.6-1.6 4.3-3.1 6-6.3 14.5-5.1 13.9.7-.3.4.1-.6.9-1 .9-1.7 1.8-1.6 2.2.1.3-.5 2.5-1.3 4.8-3.3 9.4-3.7 11-3.2 11.8.3.5 0 .9-.7.9-.6 0-.9.8-.6 2 .3 1.1.2 2-.2 2-1 0-5.4 22.7-4.7 24.5.3 1 .2 1.3-.5.9s-1 .6-.9 2.7c.1 1.9.1 3.6 0 3.9-1.6 4.5-2.2 36.1-.7 37.9.9 1.2.9 1.3 0 .7-.7-.4-1.3-.3-1.3.3 0 .5.6 1.2 1.3 1.4.9.4.9.6-.1.6-.7.1-1.1.4-.8.9.2.4.5 3 .7 5.7.1 2.8.4 5.4.7 5.9.2.4.6 3.3.8 6.4.2 3.1.9 5.9 1.6 6.3 1.1.7 1.1.9 0 .9-.7 0-1.1.4-.8.8.3.5 1.2 4.4 2.1 8.8.9 4.3 1.9 8.6 2.2 9.4.3.8.8 2.6 1 4 .2 1.3.7 2.7 1.1 3 .4.3.9 1.6 1 3 .2 1.4.8 2.7 1.3 2.8.5.2.7.8.3 1.3-.3.5-.1.9.5.9s.8.7.5 1.5c-.4.8-.1 2.1.5 2.8.6.8 1.2 2.2 1.4 3.3.2 1 1.1 3.7 2.1 5.9s2.2 5.1 2.7 6.5c2.2 5.7 3.4 8 4.2 8 .5 0 .6.4.2.9-.3.5 0 1.5.7 2.3.7.7 1.4 2 1.6 2.8.2.8.7 1.7 1.1 2 .3.3 1.2 1.6 1.8 3 2.4 4.8 6.2 11.3 8 13.5 1 1.2 2.6 3.5 3.5 5.1 1 1.6 2.2 2.8 2.8 2.6.7-.1.9.2.6.7-.4.5.1 1.6.9 2.4.8.9 1.5 1.9 1.5 2.4 0 .4 1.8 2.7 3.9 5 2.1 2.3 3.6 4.4 3.3 4.7-.3.3.2.6 1.2.6 1.1 0 1.4.4 1 1.2-.5.8-.2.9 1 .5 1.1-.4 1.5-.3 1.1.4-.4.5.3 1.9 1.6 3 1.2 1 1.8 1.9 1.3 1.9s.3.8 1.6 1.7c1.4 1 2.8 1.7 3.2 1.5.5-.1.7.1.7.6-.3 1.8.2 3.2 1.1 3.2.6 0 2.5 1.6 4.4 3.6 1.9 2 3.9 3.3 4.5 3 .6-.4.9-.1.6.7-.7 1.7 3 5.1 4.6 4.1.7-.4 1-.3.6.2-.8 1.3.1 2.4 4.6 5.7 2 1.6 4.2 2.5 4.9 2.1.6-.4.8-.3.4.4-.3.6.7 1.9 2.4 2.8 1.6 1 3 2.2 3 2.6 0 .4.7.8 1.5.8s1.5.4 1.5.8c0 .5 1.2 1.5 2.8 2.3 1.5.8 3.6 2.2 4.6 3.1 1.1 1 2.5 1.8 3.2 1.8.7 0 1.4.3 1.6.7.6 1.5 10.5 6.3 11.3 5.5.5-.4.5-.2.2.4-.6 1 12.9 8 14.7 7.5.5-.1 1.2.2 1.5.7.6.8 13.4 6.2 15.6 6.6.6.1 1.6.5 2.3.9.6.5 1.2.5 1.2.1 0-.3.7-.1 1.5.6s1.5 1 1.5.6c0-.3 1.7.1 3.8.9 2 .8 4.6 1.6 5.7 1.8 1.1.1 2.5.5 3 .9.6.3 2.8.9 4.9 1.2 2.1.4 4.8.9 6 1.1 1.2.3 3.8.7 5.8.9 2.1.3 4.1.7 4.6 1 1.5.9 16 2 32.7 2.4 14 .3 28.7-.6 38.1-2.4 1.6-.3 4-.8 5.4-1 1.4-.2 3.2-.6 4-.7.8-.2 3.9-.7 6.8-1.2 2.9-.4 5.5-1.1 5.8-1.6.2-.4 1.1-.6 1.9-.2.8.3 1.5 0 1.5-.7 0-.6.4-.9.9-.6.5.4 2.2.1 3.8-.6 1.5-.6 3.1-1.1 3.6-1 .4.1.7-.2.7-.8 0-.5.7-.7 1.5-.4.8.3 2 .2 2.7-.2.7-.5 1.9-.9 2.7-1.1.7-.1 3.5-1.1 6.2-2.2 8.6-3.8 10.4-4.4 11.2-4.3.4.1.7-.2.7-.7 0-.5 1.4-1.2 3-1.6 1.8-.4 2.7-1.1 2.4-1.7-.4-.6-.2-.8.4-.4 1.3.8 6.2-1.3 6.2-2.7 0-.6.3-.8.6-.4 1.1 1 6.5-2.3 5.8-3.5-.4-.7-.3-.8.4-.4 1.6 1 5.4-1.2 4.6-2.6-.5-.7-.2-.8.5-.4.7.5 2 .2 2.9-.6.9-.8 3-2 4.5-2.8 1.6-.8 3.9-2.4 5.2-3.6 1.3-1.2 2.6-1.9 2.9-1.6.3.3.6 0 .6-.7s.5-.9 1-.6c.6.3 1 .2 1-.3 0-.6 2.1-2.4 4.8-4.1 4.8-3.1 14.9-11.8 12.2-10.5-.9.4-1.2.3-.7-.2s1.2-.9 1.6-.9c.4 0 2.4-1.4 4.5-3.2 2.5-2 3.6-3.6 3.1-4.4-.5-.8-.4-1 .4-.5.6.4 1.8 0 2.7-.8.8-.9 1.2-1.6.7-1.6-.4-.1.4-.8 2-1.6 1.5-.8 2.7-1.8 2.7-2.2 0-.4 2.3-3.2 5-6.2s5-6.1 5-6.8c0-.7.5-1 1-.7.6.3 1 .2 1-.3 0-.4.8-1.7 1.9-2.8 2.2-2.5 4.6-6.6 4.3-7.6-.1-.5.4-.7 1.1-.5.6.1 1.1-.6 1.1-1.6-.1-.9.4-1.7 1.1-1.7.7 0 1.8-1.4 2.5-3 .7-1.7 1.7-3 2.2-3 .6 0 .8-.7.4-1.5-.3-.8-.2-1.4.2-1.2.4.1.8-.2.9-.6.1-.4 1.5-2.6 3.2-4.9 1.7-2.3 2.8-4.5 2.5-5-.3-.4-.1-.8.4-.8 1.3 0 4.3-7 3.6-8.2-.4-.6-.3-.8.3-.5 1 .7 6.9-11.8 6.7-14.1-.1-.6.2-1.2.6-1.2 1.2 0 4.1-9.1 3.3-10.3-.3-.6-.1-.7.5-.3 1.1.6 1.3 0 1.2-2.9 0-.3.7-1.9 1.5-3.5.9-1.7 1.3-3 1-3-.3 0-.1-.8.4-1.9.6-1 1.3-3.1 1.6-4.7.2-1.6.8-4 1.1-5.4.4-1.4.7-3.7.8-5.2 0-1.4.5-2.4 1-2.1.5.3.7-.8.4-2.5-.2-1.8 0-2.8.5-2.5.5.3.8-1.1.5-3.5-.2-2.2.1-3.8.5-3.5.5.3.8-1.3.5-3.5-.2-2.2 0-3.9.3-3.6 1.4.8 2-40.2.7-52.6-1.2-12-2.1-17-2.9-17-.5 0-.6-.6-.3-1.3.4-1-2.1-13-4-19.2-.1-.6-.8-3-1.5-5.4-.7-2.4-1.7-5.5-2.3-7-.6-1.4-1.2-3.2-1.4-3.9-.6-2.9-1.4-4.3-2.3-3.8-.5.3-.7-.3-.4-1.5.4-1.2-.3-3.2-1.7-5.1-1.2-1.7-1.8-2.8-1.1-2.4.8.5.8.1 0-1.8-.7-1.4-1.6-2.3-2.2-1.9-.6.3-.7.1-.3-.6.4-.6.3-1.7-.2-2.4-.6-.7-1.1-1.5-1.2-1.9-.9-3.7-1.4-4.8-2.1-4.8-.5 0-.8-.4-.7-.8.4-1.2-3.5-8.2-4.5-8.2-.4 0-.5-.5-.2-1 .3-.6.1-1-.4-1-.6 0-1.1-.7-1.1-1.6 0-.8-.6-2.2-1.2-2.9-3.1-3.4-3.6-4.3-3.1-4.9.4-.3.1-.6-.5-.6-.7 0-1.2-.7-1.2-1.5s-.4-1.5-.9-1.5-1.1-1-1.4-2.2c-.5-1.9-.8-2-2.4-.7-1.6 1.2-1.7 1.2-.5-.2 1-1.4.4-2.7-4-8.5-2.9-3.8-5.7-7.4-6.3-8-.5-.6-3.6-4.1-6.9-7.7-3.2-3.7-6.3-6.4-6.7-6.1-.5.3-.9-.1-.9-.8 0-.8-3.2-4.3-7.2-7.9-3.9-3.5-7.7-7-8.4-7.7-.7-.6-1.5-1.2-1.9-1.2-.3 0-1.7-1.2-3-2.6-1.4-1.5-2.9-2.3-3.6-1.8-.7.4-.9.3-.6-.2.3-.5-1.1-2.1-3.1-3.4-2-1.4-3.9-2.7-4.2-3-.5-.5-6.5-4.5-11.5-7.5-1.6-1-3.1-1.8-3.3-1.7-.1.2-1-.4-1.9-1.3-.8-.9-2.2-1.4-3-1.1-.8.3-1.1.2-.8-.4.3-.5-4.1-3.2-9.8-5.9-11.8-5.7-23.7-10.3-23.7-9.3 0 .4-.4.2-.8-.3-1-1.5-11.2-4.6-12.5-3.8-.5.3-.7.1-.4-.4.4-.6-.5-1.3-2.1-1.6-1.5-.3-4-.8-5.7-1.2-1.6-.4-3.9-.8-5-.9-1.1 0-2.2-.4-2.5-.8-.3-.3-2.5-.9-5-1.2-6.1-.7-11.4-1.7-11.9-2.2-.2-.2-1.1.2-1.9.9-1.3.9-1.4.9-.8-.1.5-.8 0-1.2-1.6-1.3-1.3-.1-4.1-.3-6.3-.5-7.9-.7-34.5-1.1-34.5-.5zM181 12c0 .5-.2 1-.4 1-.3 0-.8-.5-1.1-1-.3-.6-.1-1 .4-1 .6 0 1.1.4 1.1 1zm104-.6c0 .3-.4.8-1 1.1-.5.3-1 .1-1-.4 0-.6.5-1.1 1-1.1.6 0 1 .2 1 .4zm20 4c0 .3-.4.8-1 1.1-.5.3-1 .1-1-.4 0-.6.5-1.1 1-1.1.6 0 1 .2 1 .4zM181 20c0 .5-.5 1-1.1 1-.5 0-.7-.5-.4-1 .3-.6.8-1 1.1-1 .2 0 .4.4.4 1zm72-.6c0 .3-.4.8-1 1.1-.5.3-1 .1-1-.4 0-.6.5-1.1 1-1.1.6 0 1 .2 1 .4zm24 .6c0 .5-.5 1-1.1 1-.5 0-.7-.5-.4-1 .3-.6.8-1 1.1-1 .2 0 .4.4.4 1zm-44.3 4.5c0 .8-.4 1.2-.9.9-.5-.3-.6-1-.3-1.5.9-1.3 1.2-1.1 1.2.6zm-36.2 2.4c.3.5.2 1.2-.3 1.5-.5.3-.9-.1-.9-.9 0-1.7.3-1.9 1.2-.6zm-16 1.1c.3.5.1 1-.4 1-.6 0-1.1-.5-1.1-1 0-.6.2-1 .4-1 .3 0 .8.4 1.1 1zm24.5 0c0 .5-.2 1-.4 1-.3 0-.8-.5-1.1-1-.3-.6-.1-1 .4-1 .6 0 1.1.4 1.1 1zm71.4-.2c.3.5-.1.9-.9.9s-1.2-.4-.9-.9c.3-.4.7-.8.9-.8.2 0 .6.4.9.8zm60.2 4.4c.3.4-.1.5-1 .4-.8-.1-1.8-.5-2.2-.8-.3-.4.1-.5 1-.4.8.1 1.8.5 2.2.8zm-204.1 2.7c.3.5.2 1.2-.3 1.5-.5.3-.9-.1-.9-.9 0-1.7.3-1.9 1.2-.6zm8 1.1c.3.5.1 1-.4 1-.6 0-1.1-.5-1.1-1 0-.6.2-1 .4-1 .3 0 .8.4 1.1 1zM245 36c0 .5-.2 1-.4 1-.3 0-.8-.5-1.1-1-.3-.6-.1-1 .4-1 .6 0 1.1.4 1.1 1zm55.5 0c.3.5.1 1-.4 1-.6 0-1.1-.5-1.1-1 0-.6.2-1 .4-1 .3 0 .8.4 1.1 1zm-91.9 1.5c-.1.8-.5 1.7-.8 2.1-.5.4-.4-1.6.1-3.4.3-.9.9.1.7 1.3zm-83.8 3c-.3.3-.9-.2-1.2-1.2-.6-1.4-.5-1.5.5-.6.7.7 1 1.5.7 1.8zm155.9-1c0 .8-.4 1.2-.9.9-.5-.3-.6-1-.3-1.5.9-1.3 1.2-1.1 1.2.6zm56.1 1c-.3.3-.9-.2-1.2-1.2-.6-1.4-.5-1.5.5-.6.7.7 1 1.5.7 1.8zm-168.4-.7c.3.5-.1.9-.9.9s-1.2-.4-.9-.9c.3-.4.7-.8.9-.8.2 0 .6.4.9.8zm8.6.2c0 .5-.4 1-1 1-.5 0-1-.5-1-1 0-.6.5-1 1-1 .6 0 1 .4 1 1zm9-.4c0 .8-1.9 1.3-2.4.6-.3-.5.1-.9.9-.9s1.5.2 1.5.3zm174.1 1.1c1.3 1.6 1.2 1.7-.3.4-1.7-1.3-2.2-2.1-1.4-2.1.2 0 1 .8 1.7 1.7zM156.5 44c.3.5.1 1-.4 1-.6 0-1.1-.5-1.1-1 0-.6.2-1 .4-1 .3 0 .8.4 1.1 1zm112-.1c.3.5.2 1.2-.3 1.5-.5.3-.9-.1-.9-.9 0-1.7.3-1.9 1.2-.6zm11.9 4.7c.3.8.2 1.2-.4.9-.6-.3-1-1-1-1.6 0-1.4.7-1.1 1.4.7zm12.3-.1c0 .8-.4 1.2-.9.9-.5-.3-.6-1-.3-1.5.9-1.3 1.2-1.1 1.2.6zm79.4 2.8c-1 .9-1.1.8-.5-.6.3-1 .9-1.5 1.2-1.2.3.3 0 1.1-.7 1.8zm-271.4.2c0 .8-.4 1.2-.9.9-.5-.3-.6-1-.3-1.5.9-1.3 1.2-1.1 1.2.6zm17.3.1c0 .8-1.9 1.3-2.4.6-.3-.5.1-.9.9-.9s1.5.2 1.5.3zm39 .4c0 .5-.5 1-1.1 1-.5 0-.7-.5-.4-1 .3-.6.8-1 1.1-1 .2 0 .4.4.4 1zm184-.6c0 .3-.4.8-1 1.1-.5.3-1 .1-1-.4 0-.6.5-1.1 1-1.1.6 0 1 .2 1 .4zm-204.5 3.5c.3.5.2 1.2-.3 1.5-.5.3-.9-.1-.9-.9 0-1.7.3-1.9 1.2-.6zm8.2 3.6c0 .8-.4 1.2-.9.9-.5-.3-.6-1-.3-1.5.9-1.3 1.2-1.1 1.2.6zm196 1c0 .8-.4 1.2-.9.9-.5-.3-.6-1-.3-1.5.9-1.3 1.2-1.1 1.2.6zM117 60c0 .5-.5 1-1.1 1-.5 0-.7-.5-.4-1 .3-.6.8-1 1.1-1 .2 0 .4.4.4 1zm-24.5 8c.3.5.1 1-.4 1-.6 0-1.1-.5-1.1-1 0-.6.2-1 .4-1 .3 0 .8.4 1.1 1zm40 0c.3.5.1 1-.4 1-.6 0-1.1-.5-1.1-1 0-.6.2-1 .4-1 .3 0 .8.4 1.1 1zM381 76c0 .5-.5 1-1.1 1-.5 0-.7-.5-.4-1 .3-.6.8-1 1.1-1 .2 0 .4.4.4 1zm-28.3 6.5c0 .8-.4 1.2-.9.9-.5-.3-.6-1-.3-1.5.9-1.3 1.2-1.1 1.2.6zM101 84c0 .5-.5 1-1.1 1-.5 0-.7-.5-.4-1 .3-.6.8-1 1.1-1 .2 0 .4.4.4 1zm8 0c0 .5-.2 1-.4 1-.3 0-.8-.5-1.1-1-.3-.6-.1-1 .4-1 .6 0 1.1.4 1.1 1zm-28.5.9c.3.5.2 1.2-.3 1.5-.5.3-.9-.1-.9-.9 0-1.7.3-1.9 1.2-.6zm320.2 2.6c0 .8-.4 1.2-.9.9-.5-.3-.6-1-.3-1.5.9-1.3 1.2-1.1 1.2.6zM89 87.6c0 .8-1.9 1.3-2.4.6-.3-.5.1-.9.9-.9s1.5.2 1.5.3zm-20 4c0 .8-1.9 1.3-2.4.6-.3-.5.1-.9.9-.9s1.5.2 1.5.3zm-8 7.8c0 .3-.4.8-1 1.1-.5.3-1 .1-1-.4 0-.6.5-1.1 1-1.1.6 0 1 .2 1 .4zm8 .6c0 .5-.2 1-.4 1-.3 0-.8-.5-1.1-1-.3-.6-.1-1 .4-1 .6 0 1.1.4 1.1 1zm320-.6c0 .3-.4.8-1 1.1-.5.3-1 .1-1-.4 0-.6.5-1.1 1-1.1.6 0 1 .2 1 .4zm7.5.6c.3.5.1 1-.4 1-.6 0-1.1-.5-1.1-1 0-.6.2-1 .4-1 .3 0 .8.4 1.1 1zM49 104c0 .5-.5 1-1.1 1-.5 0-.7-.5-.4-1 .3-.6.8-1 1.1-1 .2 0 .4.4.4 1zm41-.4c0 .8-1.9 1.3-2.4.6-.3-.5.1-.9.9-.9s1.5.2 1.5.3zm330.5 4.4c.3.5.1 1-.4 1-.6 0-1.1-.5-1.1-1 0-.6.2-1 .4-1 .3 0 .8.4 1.1 1zM53 115.4c0 .3-.4.8-1 1.1-.5.3-1 .1-1-.4 0-.6.5-1.1 1-1.1.6 0 1 .2 1 .4zm344 .6c0 .5-.2 1-.4 1-.3 0-.8-.5-1.1-1-.3-.6-.1-1 .4-1 .6 0 1.1.4 1.1 1zm-.5 6.9c.3.5.2 1.2-.3 1.5-.5.3-.9-.1-.9-.9 0-1.7.3-1.9 1.2-.6zM53 124c0 .5-.2 1-.4 1-.3 0-.8-.5-1.1-1-.3-.6-.1-1 .4-1 .6 0 1.1.4 1.1 1zm384 0c0 .5-.2 1-.4 1-.3 0-.8-.5-1.1-1-.3-.6-.1-1 .4-1 .6 0 1.1.4 1.1 1zm-384 8c0 .5-.5 1-1.1 1-.5 0-.7-.5-.4-1 .3-.6.8-1 1.1-1 .2 0 .4.4.4 1zm387.7 11.5c0 .8-.4 1.2-.9.9-.5-.3-.6-1-.3-1.5.9-1.3 1.2-1.1 1.2.6zM25 147.4c0 .3-.4.8-1 1.1-.5.3-1 .1-1-.4 0-.6.5-1.1 1-1.1.6 0 1 .2 1 .4zm396 0c0 .3-.4.8-1 1.1-.5.3-1 .1-1-.4 0-.6.5-1.1 1-1.1.6 0 1 .2 1 .4zm7.5.6c.3.5.1 1-.4 1-.6 0-1.1-.5-1.1-1 0-.6.2-1 .4-1 .3 0 .8.4 1.1 1zM58 151.6c0 .8-1.9 1.3-2.4.6-.3-.5.1-.9.9-.9s1.5.2 1.5.3zM52.5 164c.3.5.1 1-.4 1-.6 0-1.1-.5-1.1-1 0-.6.2-1 .4-1 .3 0 .8.4 1.1 1zm384.5-.6c0 .3-.4.8-1 1.1-.5.3-1 .1-1-.4 0-.6.5-1.1 1-1.1.6 0 1 .2 1 .4zm-.3 8.1c0 .8-.4 1.2-.9.9-.5-.3-.6-1-.3-1.5.9-1.3 1.2-1.1 1.2.6zm20.3 2.9c0 .2-.8 1-1.7 1.7-1.6 1.3-1.7 1.2-.4-.4 1.3-1.6 2.1-2.1 2.1-1.3zm-418 1.2c0 .8-1.9 1.3-2.4.6-.3-.5.1-.9.9-.9s1.5.2 1.5.3zm384.6.6c.3.4-.1.5-1 .4-.8-.1-1.8-.5-2.2-.8-.3-.4.1-.5 1-.4.8.1 1.8.5 2.2.8zm12.9 3.8c.3.5.1 1-.4 1-.6 0-1.1-.5-1.1-1 0-.6.2-1 .4-1 .3 0 .8.4 1.1 1zm8.2.5c0 .8-.4 1.2-.9.9-.5-.3-.6-1-.3-1.5.9-1.3 1.2-1.1 1.2.6zm-403.3 3.3c.3.5-.1.9-.9.9s-1.2-.4-.9-.9c.3-.4.7-.8.9-.8.2 0 .6.4.9.8zm10.7 9.5c-1 .9-1.1.8-.5-.6.3-1 .9-1.5 1.2-1.2.3.3 0 1.1-.7 1.8zM29 196c0 .5-.2 1-.4 1-.3 0-.8-.5-1.1-1-.3-.6-.1-1 .4-1 .6 0 1.1.4 1.1 1zm400 8c0 .5-.2 1-.4 1-.3 0-.8-.5-1.1-1-.3-.6-.1-1 .4-1 .6 0 1.1.4 1.1 1zm-384 8c0 .5-.5 1-1.1 1-.5 0-.7-.5-.4-1 .3-.6.8-1 1.1-1 .2 0 .4.4.4 1zm383.5 0c.3.5.1 1-.4 1-.6 0-1.1-.5-1.1-1 0-.6.2-1 .4-1 .3 0 .8.4 1.1 1zm24.5 0c0 .5-.2 1-.4 1-.3 0-.8-.5-1.1-1-.3-.6-.1-1 .4-1 .6 0 1.1.4 1.1 1zm-24 8c0 .5-.5 1-1.1 1-.5 0-.7-.5-.4-1 .3-.6.8-1 1.1-1 .2 0 .4.4.4 1zm24 0c0 .5-.5 1-1.1 1-.5 0-.7-.5-.4-1 .3-.6.8-1 1.1-1 .2 0 .4.4.4 1zm-428 4c0 .5-.4 1-1 1-.5 0-1-.5-1-1 0-.6.5-1 1-1 .6 0 1 .4 1 1zm15.5 6.9c.3.5.2 1.2-.3 1.5-.5.3-.9-.1-.9-.9 0-1.7.3-1.9 1.2-.6zm-16 1c.3.5.2 1.2-.3 1.5-.5.3-.9-.1-.9-.9 0-1.7.3-1.9 1.2-.6zM437 236c0 .5-.5 1-1.1 1-.5 0-.7-.5-.4-1 .3-.6.8-1 1.1-1 .2 0 .4.4.4 1zm-414.6 3.8c.3.5-.1.9-.9.9s-1.2-.4-.9-.9c.3-.4.7-.8.9-.8.2 0 .6.4.9.8zm414.3 3.7c0 .8-.4 1.2-.9.9-.5-.3-.6-1-.3-1.5.9-1.3 1.2-1.1 1.2.6zm24.3-.1c0 .3-.4.8-1 1.1-.5.3-1 .1-1-.4 0-.6.5-1.1 1-1.1.6 0 1 .2 1 .4zM28.5 252c.3.5.1 1-.4 1-.6 0-1.1-.5-1.1-1 0-.6.2-1 .4-1 .3 0 .8.4 1.1 1zm8.5-.6c0 .3-.4.8-1 1.1-.5.3-1 .1-1-.4 0-.6.5-1.1 1-1.1.6 0 1 .2 1 .4zM13 260c0 .5-.2 1-.4 1-.3 0-.8-.5-1.1-1-.3-.6-.1-1 .4-1 .6 0 1.1.4 1.1 1zm28.4 3.8c.3.5-.1.9-.9.9s-1.2-.4-.9-.9c.3-.4.7-.8.9-.8.2 0 .6.4.9.8zM13 267.4c0 .3-.4.8-1 1.1-.5.3-1 .1-1-.4 0-.6.5-1.1 1-1.1.6 0 1 .2 1 .4zm447.5 8.6c.3.5.1 1-.4 1-.6 0-1.1-.5-1.1-1 0-.6.2-1 .4-1 .3 0 .8.4 1.1 1zm-24 6.9c.3.5.2 1.2-.3 1.5-.5.3-.9-.1-.9-.9 0-1.7.3-1.9 1.2-.6zM37 284c0 .5-.2 1-.4 1-.3 0-.8-.5-1.1-1-.3-.6-.1-1 .4-1 .6 0 1.1.4 1.1 1zm8 0c0 .5-.5 1-1.1 1-.5 0-.7-.5-.4-1 .3-.6.8-1 1.1-1 .2 0 .4.4.4 1zm400 0c0 .5-.2 1-.4 1-.3 0-.8-.5-1.1-1-.3-.6-.1-1 .4-1 .6 0 1.1.4 1.1 1zm16.4-.2c.3.5-.1.9-.9.9s-1.2-.4-.9-.9c.3-.4.7-.8.9-.8.2 0 .6.4.9.8zM53 292c0 .5-.2 1-.4 1-.3 0-.8-.5-1.1-1-.3-.6-.1-1 .4-1 .6 0 1.1.4 1.1 1zm383.5 0c.3.5.1 1-.4 1-.6 0-1.1-.5-1.1-1 0-.6.2-1 .4-1 .3 0 .8.4 1.1 1zm8.5 0c0 .5-.5 1-1.1 1-.5 0-.7-.5-.4-1 .3-.6.8-1 1.1-1 .2 0 .4.4.4 1zm-428 4c0 .5-.2 1-.4 1-.3 0-.8-.5-1.1-1-.3-.6-.1-1 .4-1 .6 0 1.1.4 1.1 1zm8.4-.2c.3.5-.1.9-.9.9s-1.2-.4-.9-.9c.3-.4.7-.8.9-.8.2 0 .6.4.9.8zM37 300c0 .5-.5 1-1.1 1-.5 0-.7-.5-.4-1 .3-.6.8-1 1.1-1 .2 0 .4.4.4 1zm390.4 3.8c.3.5-.1.9-.9.9s-1.2-.4-.9-.9c.3-.4.7-.8.9-.8.2 0 .6.4.9.8zM36.5 308c.3.5.1 1-.4 1-.6 0-1.1-.5-1.1-1 0-.6.2-1 .4-1 .3 0 .8.4 1.1 1zm20.2 3.5c0 .8-.4 1.2-.9.9-.5-.3-.6-1-.3-1.5.9-1.3 1.2-1.1 1.2.6zm-8.2 2.4c.3.5.2 1.2-.3 1.5-.5.3-.9-.1-.9-.9 0-1.7.3-1.9 1.2-.6zM413 316c0 .5-.5 1-1.1 1-.5 0-.7-.5-.4-1 .3-.6.8-1 1.1-1 .2 0 .4.4.4 1zm26.5 3.9c-.9.8-3.6 1-3 .2.2-.4 1.1-.8 2-.8.8 0 1.3.3 1 .6zM29 324c0 .5-.5 1-1.1 1-.5 0-.7-.5-.4-1 .3-.6.8-1 1.1-1 .2 0 .4.4.4 1zm24 0c0 .5-.5 1-1.1 1-.5 0-.7-.5-.4-1 .3-.6.8-1 1.1-1 .2 0 .4.4.4 1zm-24.5 6.8c-.3.3-1.1 0-1.8-.7-.9-1-.8-1.1.6-.5 1 .3 1.5.9 1.2 1.2zm24 1.2c.3.5.1 1-.4 1-.6 0-1.1-.5-1.1-1 0-.6.2-1 .4-1 .3 0 .8.4 1.1 1zm376.5 8c0 .5-.2 1-.4 1-.3 0-.8-.5-1.1-1-.3-.6-.1-1 .4-1 .6 0 1.1.4 1.1 1zm-380.9 5.3c-1 .9-1.1.8-.5-.6.3-1 .9-1.5 1.2-1.2.3.3 0 1.1-.7 1.8zm9.9-1.7c0 .8-1.9 1.3-2.4.6-.3-.5.1-.9.9-.9s1.5.2 1.5.3zm350.7.9c0 .8-.4 1.2-.9.9-.5-.3-.6-1-.3-1.5.9-1.3 1.2-1.1 1.2.6zm19.8 2.4c.3.5.2 1.2-.3 1.5-.5.3-.9-.1-.9-.9 0-1.7.3-1.9 1.2-.6zM77 348c0 .5-.2 1-.4 1-.3 0-.8-.5-1.1-1-.3-.6-.1-1 .4-1 .6 0 1.1.4 1.1 1zm11.5 4.8c-.3.3-1.1 0-1.8-.7-.9-1-.8-1.1.6-.5 1 .3 1.5.9 1.2 1.2zm-36 3.2c.3.5.1 1-.4 1-.6 0-1.1-.5-1.1-1 0-.6.2-1 .4-1 .3 0 .8.4 1.1 1zm364.2 1.5c0 .8-.4 1.2-.9.9-.5-.3-.6-1-.3-1.5.9-1.3 1.2-1.1 1.2.6zM69 363.4c0 .3-.4.8-1 1.1-.5.3-1 .1-1-.4 0-.6.5-1.1 1-1.1.6 0 1 .2 1 .4zm336 0c0 .3-.4.8-1 1.1-.5.3-1 .1-1-.4 0-.6.5-1.1 1-1.1.6 0 1 .2 1 .4zM69 372c0 .5-.2 1-.4 1-.3 0-.8-.5-1.1-1-.3-.6-.1-1 .4-1 .6 0 1.1.4 1.1 1zm336 0c0 .5-.5 1-1.1 1-.5 0-.7-.5-.4-1 .3-.6.8-1 1.1-1 .2 0 .4.4.4 1zm-348.5 4c.3.5.1 1-.4 1-.6 0-1.1-.5-1.1-1 0-.6.2-1 .4-1 .3 0 .8.4 1.1 1zm347.9 3.8c.3.5-.1.9-.9.9s-1.2-.4-.9-.9c.3-.4.7-.8.9-.8.2 0 .6.4.9.8zM105 383.4c0 .3-.4.8-1 1.1-.5.3-1 .1-1-.4 0-.6.5-1.1 1-1.1.6 0 1 .2 1 .4zm-28.5 3.5c.3.5.2 1.2-.3 1.5-.5.3-.9-.1-.9-.9 0-1.7.3-1.9 1.2-.6zm8 1.1c.3.5.1 1-.4 1-.6 0-1.1-.5-1.1-1 0-.6.2-1 .4-1 .3 0 .8.4 1.1 1zm268.5-.6c0 .3-.4.8-1 1.1-.5.3-1 .1-1-.4 0-.6.5-1.1 1-1.1.6 0 1 .2 1 .4zm-240.7 4.1c-.3.9-.8 1.4-1 1.1-.3-.3-.2-.9.2-1.5.9-1.6 1.5-1.3.8.4zm-41.3.1c0 .8-1.9 1.3-2.4.6-.3-.5.1-.9.9-.9s1.5.2 1.5.3zm33.4.2c.3.5-.1.9-.9.9s-1.2-.4-.9-.9c.3-.4.7-.8.9-.8.2 0 .6.4.9.8zm288 0c.3.5-.1.9-.9.9s-1.2-.4-.9-.9c.3-.4.7-.8.9-.8.2 0 .6.4.9.8zm-35.9 4.2c.3.5.1 1-.4 1-.6 0-1.1-.5-1.1-1 0-.6.2-1 .4-1 .3 0 .8.4 1.1 1zm8.5-.6c0 .3-.4.8-1 1.1-.5.3-1 .1-1-.4 0-.6.5-1.1 1-1.1.6 0 1 .2 1 .4zm15.5.5c.3.5.2 1.2-.3 1.5-.5.3-.9-.1-.9-.9 0-1.7.3-1.9 1.2-.6zM109 404c0 .5-.2 1-.4 1-.3 0-.8-.5-1.1-1-.3-.6-.1-1 .4-1 .6 0 1.1.4 1.1 1zm272 0c0 .5-.5 1-1.1 1-.5 0-.7-.5-.4-1 .3-.6.8-1 1.1-1 .2 0 .4.4.4 1zm-44 3.4c0 .2-.7.7-1.6 1-.8.3-1.2.2-.9-.4.6-1 2.5-1.4 2.5-.6zm7.7 1.1c0 .8-.4 1.2-.9.9-.5-.3-.6-1-.3-1.5.9-1.3 1.2-1.1 1.2.6zm41.8 2.3c-.3.3-1.1 0-1.8-.7-.9-1-.8-1.1.6-.5 1 .3 1.5.9 1.2 1.2zm-277.5.6c0 .3-.4.8-1 1.1-.5.3-1 .1-1-.4 0-.6.5-1.1 1-1.1.6 0 1 .2 1 .4zm200 .6c0 .5-.5 1-1.1 1-.5 0-.7-.5-.4-1 .3-.6.8-1 1.1-1 .2 0 .4.4.4 1zm-128.5 6.9c.3.5.2 1.2-.3 1.5-.5.3-.9-.1-.9-.9 0-1.7.3-1.9 1.2-.6zM149 420c0 .5-.5 1-1.1 1-.5 0-.7-.5-.4-1 .3-.6.8-1 1.1-1 .2 0 .4.4.4 1zm212 4c0 .5-.5 1-1.1 1-.5 0-.7-.5-.4-1 .3-.6.8-1 1.1-1 .2 0 .4.4.4 1zm-140.5 2.9c.3.5.2 1.2-.3 1.5-.5.3-.9-.1-.9-.9 0-1.7.3-1.9 1.2-.6zm-72 1.1c.3.5.1 1-.4 1-.6 0-1.1-.5-1.1-1 0-.6.2-1 .4-1 .3 0 .8.4 1.1 1zm104.5 0c0 .5-.2 1-.4 1-.3 0-.8-.5-1.1-1-.3-.6-.1-1 .4-1 .6 0 1.1.4 1.1 1zm7.4-.2c.3.5-.1.9-.9.9s-1.2-.4-.9-.9c.3-.4.7-.8.9-.8.2 0 .6.4.9.8zm16.1.2c.3.5.1 1-.4 1-.6 0-1.1-.5-1.1-1 0-.6.2-1 .4-1 .3 0 .8.4 1.1 1zm8.5 0c0 .5-.2 1-.4 1-.3 0-.8-.5-1.1-1-.3-.6-.1-1 .4-1 .6 0 1.1.4 1.1 1zm56-.6c0 .3-.4.8-1 1.1-.5.3-1 .1-1-.4 0-.6.5-1.1 1-1.1.6 0 1 .2 1 .4zm-148.4 4.1c-.1.8-.5 1.7-.8 2.1-.5.4-.4-1.6.1-3.4.3-.9.9.1.7 1.3zm-5.2.3c.3.5-.1.9-.9.9s-1.2-.4-.9-.9c.3-.4.7-.8.9-.8.2 0 .6.4.9.8zm12.2.4c.3.4-.1.5-1 .4-.8-.1-1.8-.5-2.2-.8-.3-.4.1-.5 1-.4.8.1 1.8.5 2.2.8zm33.4-.2c0 .5-.2 1-.4 1-.3 0-.8-.5-1.1-1-.3-.6-.1-1 .4-1 .6 0 1.1.4 1.1 1zm63.5.8c-.3.3-1.1 0-1.8-.7-.9-1-.8-1.1.6-.5 1 .3 1.5.9 1.2 1.2zm-84 3.2c.3.5.1 1-.4 1-.6 0-1.1-.5-1.1-1 0-.6.2-1 .4-1 .3 0 .8.4 1.1 1zm8.5 0c0 .5-.5 1-1.1 1-.5 0-.7-.5-.4-1 .3-.6.8-1 1.1-1 .2 0 .4.4.4 1zm32-.6c0 .3-.4.8-1 1.1-.5.3-1 .1-1-.4 0-.6.5-1.1 1-1.1.6 0 1 .2 1 .4zm32 0c0 .3-.4.8-1 1.1-.5.3-1 .1-1-.4 0-.6.5-1.1 1-1.1.6 0 1 .2 1 .4zm24 0c0 .3-.4.8-1 1.1-.5.3-1 .1-1-.4 0-.6.5-1.1 1-1.1.6 0 1 .2 1 .4zm7.5.6c.3.5.1 1-.4 1-.6 0-1.1-.5-1.1-1 0-.6.2-1 .4-1 .3 0 .8.4 1.1 1zm-180 4c.3.5.1 1-.4 1-.6 0-1.1-.5-1.1-1 0-.6.2-1 .4-1 .3 0 .8.4 1.1 1zm7.6 1.3c-1 .9-1.1.8-.5-.6.3-1 .9-1.5 1.2-1.2.3.3 0 1.1-.7 1.8zm152.6-.8c0 .8-.4 1.2-.9.9-.5-.3-.6-1-.3-1.5.9-1.3 1.2-1.1 1.2.6zM173 444c0 .5-.2 1-.4 1-.3 0-.8-.5-1.1-1-.3-.6-.1-1 .4-1 .6 0 1.1.4 1.1 1zm7.7.5c0 .8-.4 1.2-.9.9-.5-.3-.6-1-.3-1.5.9-1.3 1.2-1.1 1.2.6zm66.3 3.1c0 .8-1.9 1.3-2.4.6-.3-.5.1-.9.9-.9s1.5.2 1.5.3zm48.4.2c.3.5-.1.9-.9.9s-1.2-.4-.9-.9c.3-.4.7-.8.9-.8.2 0 .6.4.9.8zM173 452c0 .5-.2 1-.4 1-.3 0-.8-.5-1.1-1-.3-.6-.1-1 .4-1 .6 0 1.1.4 1.1 1zm112-.6c0 .3-.4.8-1 1.1-.5.3-1 .1-1-.4 0-.6.5-1.1 1-1.1.6 0 1 .2 1 .4zm-84.5 3.5c.3.5.2 1.2-.3 1.5-.5.3-.9-.1-.9-.9 0-1.7.3-1.9 1.2-.6zm48 0c.3.5.2 1.2-.3 1.5-.5.3-.9-.1-.9-.9 0-1.7.3-1.9 1.2-.6zm-35.8 5.6c0 .8-.4 1.2-.9.9-.5-.3-.6-1-.3-1.5.9-1.3 1.2-1.1 1.2.6zm16.3-.5c0 .5-.2 1-.4 1-.3 0-.8-.5-1.1-1-.3-.6-.1-1 .4-1 .6 0 1.1.4 1.1 1zm8 0c0 .5-.5 1-1.1 1-.5 0-.7-.5-.4-1 .3-.6.8-1 1.1-1 .2 0 .4.4.4 1z"/></svg>